<svg width="126" height="142" viewBox="0 0 126 142" fill="none" xmlns="http://www.w3.org/2000/svg">
<path d="M70.4774 71.9332C70.7449 71.6211 71.4937 70.9971 72.3496 70.9971" stroke="black" stroke-width="2.7" stroke-linecap="round" stroke-linejoin="round"/>
<circle cx="49.8834" cy="23.2563" r="0.5" fill="black" stroke="black" stroke-width="0.872188"/>
<circle cx="52.6916" cy="20.4481" r="0.5" fill="black" stroke="black" stroke-width="0.872188"/>
<circle cx="49.8834" cy="18.5759" r="0.5" fill="black" stroke="black" stroke-width="0.872188"/>
<circle cx="52.6916" cy="15.7675" r="0.5" fill="black" stroke="black" stroke-width="0.872188"/>
<circle cx="44.2668" cy="94.3995" r="0.5" fill="black" stroke="black" stroke-width="0.872188"/>
<circle cx="66.265" cy="65.8486" r="0.904141" fill="black" stroke="black"/>
<circle cx="76.562" cy="63.0404" r="0.904141" fill="black" stroke="black"/>
<circle cx="39.5863" cy="92.5273" r="0.5" fill="black" stroke="black" stroke-width="0.872188"/>
<circle cx="39.5863" cy="97.2077" r="0.5" fill="black" stroke="black" stroke-width="0.872188"/>
<circle cx="43.3307" cy="99.0799" r="0.5" fill="black" stroke="black" stroke-width="0.872188"/>
<path fill-rule="evenodd" clip-rule="evenodd" d="M72.4755 57.5665C73.323 58.2026 74.2461 58.26 75.0001 58.172C75.4996 58.1137 76.0702 57.9648 76.524 57.8464C76.6759 57.8068 76.8148 57.7705 76.9335 57.7423C77.5075 57.6056 77.9127 57.5596 78.2513 57.6193C78.5343 57.6692 78.8723 57.8105 79.2697 58.2872C79.7471 58.8599 80.5983 58.9372 81.171 58.4598C81.7438 57.9824 81.821 57.1311 81.3436 56.5584C80.5709 55.6314 79.6803 55.1295 78.72 54.9603C77.8153 54.8008 76.9627 54.9598 76.308 55.1157C76.0499 55.1772 75.8326 55.2341 75.64 55.2845L75.64 55.2845C75.2689 55.3817 74.9897 55.4549 74.6872 55.4902C74.315 55.5336 74.185 55.4736 74.0963 55.4071C73.5 54.9595 72.6538 55.0801 72.2062 55.6764C71.7587 56.2727 71.8792 57.1189 72.4755 57.5665ZM63.683 60.9207C64.3225 60.5374 64.5301 59.7083 64.1468 59.0688C63.7635 58.4293 62.9343 58.2216 62.2948 58.6049C61.876 58.856 61.4842 59.0519 61.071 59.2586L61.071 59.2586C60.9601 59.314 60.8477 59.3702 60.7328 59.4285C60.2221 59.6875 59.6439 59.996 59.1329 60.4285C57.9773 61.4065 57.4263 62.7808 57.4265 64.9114C57.4265 65.657 58.031 66.2614 58.7766 66.2613C59.5222 66.2613 60.1265 65.6568 60.1265 64.9113C60.1264 63.2975 60.5115 62.7989 60.8771 62.4895C61.1267 62.2783 61.4554 62.0894 61.954 61.8366C62.0433 61.7913 62.1383 61.7438 62.2382 61.6939L62.2382 61.6939C62.6597 61.4834 63.1665 61.2303 63.683 60.9207Z" fill="black"/>
<path d="M57.8403 121.647C56.9042 126.762 55.3129 137.366 56.4362 138.864C57.8403 140.736 63.4569 140.736 63.4569 137.46C63.4569 134.839 60.6486 134.183 59.2445 134.183L60.6486 122.632M57.8403 121.647C58.7492 122.006 59.685 122.335 60.6486 122.632M57.8403 121.647C38.182 117.802 27.7199 91.5026 27.871 78.0178C26.0128 77.0817 23.6725 86.4427 18.9921 86.4427C16.1834 86.4427 13.8441 78.9539 10.0997 76.6137C6.35536 74.2735 2.14327 75.2095 1.67522 71.9332C1.30078 69.3122 4.63951 70.217 6.35568 70.9971C5.73162 70.5291 4.5771 69.1249 4.95154 67.2528C5.32598 65.3806 8.53968 68.9689 10.0997 70.9971C9.47567 70.5291 8.60198 69.1249 10.0997 67.2528C11.9719 64.9125 13.3757 69.593 14.3118 72.8693C14.8261 74.6695 18.9921 79.89 18.9921 79.89C18.9921 79.89 20.8644 77.5498 22.7366 74.7415C24.7644 71.6999 26.7837 68.0328 27.871 69.593C26.6333 49.219 36.7709 32.3944 42.863 23.2563C48.1051 15.3931 51.9119 9.68297 53.16 7.81078C52.6919 5.93859 53.2535 2.19421 59.2445 2.19421C66.7332 2.19421 69.5415 10.151 74.69 17.6398C78.1009 22.601 87.0581 35.1628 94.2128 45.2545C95.773 47.4552 97.2475 49.5384 98.5601 51.3997C100.314 53.887 101.779 55.9781 102.773 57.4238C107.921 64.9125 106.985 72.4013 109.794 78.0178C112.327 83.0844 116.384 114.05 89.6676 122.471M60.6486 122.632C66.1055 124.318 72.4531 125.001 79.8386 124.354C83.505 124.034 86.7676 123.385 89.6676 122.471M85.9232 124.354V133.247C84.675 133.559 82.2724 134.839 82.6468 137.46C83.0213 140.081 88.7315 138.552 91.5397 137.46L89.6676 122.471M94.8763 46.1906C98.2466 47.3139 101.836 51.3997 106.049 51.8072C108.701 49.623 112.227 45.629 112.601 43.3824C113.07 40.5741 109.325 36.3616 112.601 36.3616C115.223 36.3616 114.942 39.1699 114.942 40.106C115.41 38.2338 117.656 33.8342 119.154 34.9575C120.652 36.0808 118.374 39.794 117.75 41.5102C118.842 39.95 122.711 37.2977 123.835 39.1699C125.239 41.5102 117.282 44.3184 115.878 47.1267C114.474 49.935 109.794 59.296 106.985 58.8279C105.356 58.5565 102.34 55.6595 99.8356 53.2113M63.4569 32.6173C59.2445 34.0214 51.2877 53.6794 50.8196 67.2528C50.3516 80.8261 61.1167 90.1871 77.4983 86.4427C93.88 82.6983 94.348 65.8486 81.7108 53.2113C69.0735 40.5741 69.0735 34.0214 63.4569 32.6173Z" stroke="black" stroke-width="2.7" stroke-linecap="round" stroke-linejoin="round"/>
<path d="M55.968 136.056L57.8402 122.482H60.6485L59.2443 133.715L62.5206 135.12L63.4567 137.928L61.1165 140.268L56.9041 139.8L55.968 136.056Z" fill="black"/>
<path d="M85.923 132.779V123.886L89.6674 122.95L92.0076 137.46L88.7313 138.396H82.6467V136.056L85.923 132.779Z" fill="black"/>
<path d="M55.968 136.056L57.8402 122.482H60.6485L59.2443 133.715L62.5206 135.12L63.4567 137.928L61.1165 140.268L56.9041 139.8L55.968 136.056Z" stroke="black"/>
<path d="M85.923 132.779V123.886L89.6674 122.95L92.0076 137.46L88.7313 138.396H82.6467V136.056L85.923 132.779Z" stroke="black"/>
<path d="M58.7764 5.9364C56.5298 5.18753 54.4078 8.27864 53.6278 9.21473C51.2875 2.66225 57.806 1.25081 60.181 1.72563C64.862 2.66146 72.0149 7.88865 68.6054 10.6167C66.2657 12.4888 61.5847 6.8725 58.7764 5.9364Z" fill="black" stroke="black" stroke-width="2.7" stroke-linecap="round" stroke-linejoin="round"/>
</svg>
