<svg width="104" height="128" viewBox="0 0 104 128" fill="none" xmlns="http://www.w3.org/2000/svg">
<path d="M68.8275 18.528C77.1356 21.9602 63.997 32.0279 57.3302 42.6262C50.6633 53.2246 48.0675 64.6761 45.5308 62.8906C43.8292 61.693 45.7257 51.7617 49.6569 40.4452C53.588 29.1288 62.6535 15.9775 68.8275 18.528Z" stroke="black" stroke-width="2.7"/>
<path d="M47.1717 75.1359C46.3308 77.2663 44.1454 78.3646 42.4579 77.9403C40.7704 77.516 39.7682 75.6163 40.6091 73.4858C41.45 71.3554 43.6354 70.2571 45.3229 70.6814C47.0104 71.1057 48.0126 73.0054 47.1717 75.1359Z" stroke="black" stroke-width="2.7"/>
<path d="M64.5808 92.142C77.2481 86.6097 102.452 67.5784 101.927 35.7121C101.272 -4.12079 23.3029 -14.079 5.61246 35.7121C-8.53991 75.545 21.5557 92.142 38.3726 95.4614L28.5445 126L59.9944 84.8393" stroke="black" stroke-width="2.7" stroke-linecap="round" stroke-linejoin="round"/>
</svg>
