<svg width="24" height="24" viewBox="0 0 24 24" fill="none" xmlns="http://www.w3.org/2000/svg">
<path d="M11 14.9844L11 17L12.9688 17L12.9688 14.9844L11 14.9844ZM11 6.96875L11 12.9687L12.9688 12.9687L12.9688 6.96875L11 6.96875ZM19.0625 19.0156C17.0938 20.9844 14.7344 21.9687 11.9844 21.9687C9.23438 21.9687 6.89063 20.9844 4.95313 19.0156C2.98438 17.0781 2 14.7344 2 11.9844C2 9.23437 2.98438 6.875 4.95313 4.90625C6.89063 2.96875 9.23438 2 11.9844 2C14.7344 2 17.0938 2.96875 19.0625 4.90625C21 6.875 21.9688 9.23438 21.9688 11.9844C21.9688 14.7344 21 17.0781 19.0625 19.0156Z" fill="currentColor"/>
</svg>
