<svg width="24" height="24" viewBox="0 0 24 24" fill="none" xmlns="http://www.w3.org/2000/svg">
<rect x="3" y="5" width="18" height="14" rx="2" stroke="currentColor" stroke-width="2"/>
<path d="M9.46215 12.1468C9.76634 11.7134 9.95834 11.1241 9.95834 10.6184C9.95834 9.68583 9.30543 9.08333 8.50001 9.08333C7.69459 9.08333 7.04168 9.68583 7.04168 10.6184C7.04168 11.2596 7.35028 12.0349 7.80488 12.4569C8.01152 12.6487 8.24832 12.7675 8.50001 12.7675C8.52518 12.7675 8.5502 12.7664 8.57506 12.764C8.67974 12.7542 8.78151 12.7241 8.87923 12.6772C9.09815 12.5721 9.29674 12.3825 9.46215 12.1468Z" fill="currentColor"/>
<path d="M5.88698 13.4656L7.15698 12.6686C7.47152 13.0693 7.92638 13.42 8.50001 13.42C9.07365 13.42 9.5285 13.0693 9.84304 12.6686L11.113 13.4656C11.302 13.5841 11.4167 13.7915 11.4167 14.0146V14.3069C11.4167 14.6649 11.1265 14.955 10.7685 14.955H6.23149C5.87353 14.955 5.58334 14.6649 5.58334 14.3069V14.0146C5.58334 13.7915 5.69804 13.5841 5.88698 13.4656Z" fill="currentColor"/>
<line x1="13.5" y1="9.5" x2="17.5" y2="9.5" stroke="currentColor" stroke-linecap="round"/>
<line x1="13.5" y1="11.5" x2="17.5" y2="11.5" stroke="currentColor" stroke-linecap="round"/>
<line x1="13.5" y1="13.5" x2="15.5" y2="13.5" stroke="currentColor" stroke-linecap="round"/>
</svg>
