<svg width="220" height="32" viewBox="0 0 220 32" fill="none" xmlns="http://www.w3.org/2000/svg">
<path d="M184.618 16.275C184.854 14.8505 185.962 13.8221 187.545 13.8221C189.127 13.8221 190.234 14.8505 190.472 16.275H184.619H184.618ZM197.826 19.4387V18.1723C197.826 11.5273 194.347 6.14861 187.543 6.14861C180.74 6.14861 176.47 10.9732 176.47 18.0926C176.47 25.2119 181.532 31.1433 187.702 31.1433C194.188 31.1433 198.143 27.5053 199.329 22.0468L190.629 20.2278C190.233 21.9685 188.81 22.5211 187.543 22.5211C185.803 22.5211 184.774 21.4927 184.538 19.4358H197.826V19.4387ZM69.3703 30.9083C72.534 30.9083 74.5111 29.2474 75.3031 26.0039H75.3829L75.2248 30.7501H84.6375C84.2415 22.128 84.2415 11.1342 84.6375 2.51201H75.2248V7.97047L75.3829 10.8179H75.3031C74.5909 7.57448 72.5354 5.91358 69.3703 5.91358C64.1497 5.91358 60.5117 11.2125 60.5117 18.4116C60.5117 25.6108 64.1497 30.9097 69.3703 30.9097V30.9083ZM0 30.7501H10.0452L11.4682 20.5469H15.7401L16.7685 13.0329H12.4966L12.8926 10.6598H22.3851L23.4919 2.51201H4.74624C4.03402 10.976 2.45146 21.4172 0 30.7501ZM101.959 17.6196V11.1327C104.332 11.1327 106.625 11.1327 106.625 14.1383C106.625 17.1439 104.172 17.6182 101.959 17.6182V17.6196ZM92.2298 30.7487H101.959V20.7819H102.829L106.151 30.7487H116.512L111.054 19.3589C113.347 18.7264 115.168 15.7992 115.168 11.845C115.168 3.69715 108.128 2.51059 102.275 2.51059H92.2298C92.6257 11.1327 92.6257 22.1266 92.2298 30.7487ZM198.46 7.97047V14.1397H214.202V6.46769L198.46 7.97047ZM197.748 19.5982C198.935 28.2203 203.839 31.1461 209.614 31.1461C217.049 31.1461 221.558 25.4512 218.71 15.8804L210.404 17.463C211.985 20.5483 211.433 22.7633 209.614 22.7633C207.953 22.7633 207.162 21.1024 206.766 19.0455C205.659 12.9546 205.026 6.94345 204.551 0.852539L195.613 4.41222L197.748 19.5996V19.5982ZM165.16 16.2764V19.9144H166.584L169.353 30.7501H179.715L174.336 17.8575C177.025 16.7507 179.161 11.7666 177.738 6.70415H168.721C169.275 12.3207 168.325 16.4331 166.032 16.275H165.161L165.16 16.2764ZM72.4557 22.1294C70.5569 22.1294 69.3703 20.5469 69.3703 18.5697C69.3703 16.5926 70.5569 14.9317 72.4557 14.9317C74.3544 14.9317 75.4612 16.5143 75.4612 18.5697C75.4612 20.6252 74.2747 22.1294 72.4557 22.1294ZM50.3084 22.1294C48.4097 22.1294 47.2231 20.5469 47.2231 18.5697C47.2231 16.5926 48.4097 14.9317 50.3084 14.9317C52.2072 14.9317 53.314 16.5143 53.314 18.5697C53.314 20.6252 52.1274 22.1294 50.3084 22.1294ZM28.7139 22.1294C26.8949 22.1294 25.7083 20.5469 25.7083 18.5697C25.7083 16.5926 26.8949 14.9317 28.7139 14.9317C30.5329 14.9317 31.7195 16.5143 31.7195 18.5697C31.7195 20.6252 30.5329 22.1294 28.7139 22.1294ZM28.7139 30.9097C35.5954 30.9097 40.1037 25.6093 40.1037 18.4116C40.1037 11.2139 35.5954 5.91358 28.7139 5.91358C21.8324 5.91358 17.4822 11.2125 17.4822 18.4116C17.4822 25.6108 21.9122 30.9097 28.7139 30.9097ZM156.539 30.7516H165.714V2.51201H156.539V30.7501V30.7516ZM149.103 19.282C148.866 21.101 147.759 22.3673 146.098 22.3673C144.199 22.3673 143.013 20.8645 143.013 18.7293C143.013 16.594 144.199 15.1696 146.098 15.1696C147.759 15.1696 148.867 16.3562 149.025 18.0968L157.251 16.8319C156.539 10.5829 152.347 6.15289 146.098 6.15289C139.295 6.15289 134.786 11.4532 134.786 18.5712C134.786 25.6891 139.295 31.1476 146.098 31.1476C152.267 31.1476 156.459 26.8757 157.171 20.6281L149.103 19.2834V19.282ZM124.503 22.3673C122.605 22.3673 121.418 20.8645 121.418 18.7293C121.418 16.594 122.605 15.1696 124.503 15.1696C126.402 15.1696 127.509 16.6724 127.509 18.7293C127.509 20.7862 126.322 22.3673 124.503 22.3673ZM124.583 31.1476C131.386 31.1476 135.815 25.8472 135.815 18.5712C135.815 11.2951 131.385 6.15289 124.583 6.15289C117.781 6.15289 113.351 11.4532 113.351 18.5712C113.351 25.6891 117.702 31.1476 124.583 31.1476ZM50.3084 30.9097C57.1116 30.9097 61.6199 25.6093 61.6199 18.4116C61.6199 11.2139 57.1116 5.91358 50.3084 5.91358C43.5053 5.91358 38.9969 11.2125 38.9969 18.4116C38.9969 25.6108 43.427 30.9097 50.3084 30.9097Z" fill="currentColor"/>
</svg>
