<svg width="24" height="24" viewBox="0 0 24 24" fill="none" xmlns="http://www.w3.org/2000/svg">
<path fill-rule="evenodd" clip-rule="evenodd" d="M16 5.13419V5C16 3.34315 14.6569 2 13 2H11C9.34315 2 8 3.34315 8 5V5.13419C5.51362 5.38305 4 5.88896 4 6.47259V7.47436C4 7.75091 4.39772 8.01 5.09158 8.23257C6.47995 8.67792 9.05402 8.97701 12 8.97701C14.7614 8.97701 17.1961 8.71422 18.6337 8.31451C18.7298 8.28779 18.8214 8.26047 18.9084 8.23257C19.6023 8.01 20 7.7509 20 7.47436V6.47259C20 5.88896 18.4864 5.38305 16 5.13419ZM14 5C14 4.44772 13.5523 4 13 4H11C10.4477 4 10 4.44772 10 5V5.97171H14V5ZM18.0752 10.5015C18.2857 10.462 18.4952 10.4188 18.7014 10.3715L17.8667 18.9947C17.8667 20.6545 15.2401 22 12 22C8.75993 22 6.13333 20.6545 6.13333 18.9947L5.29862 10.3715C5.50475 10.4188 5.7143 10.462 5.92476 10.5015C7.54744 10.8063 9.69422 10.9806 12 10.9806C14.3058 10.9806 16.4526 10.8063 18.0752 10.5015Z" fill="currentColor"/>
</svg>
